<svg width="42" height="40" viewBox="0 0 42 40" fill="none" xmlns="http://www.w3.org/2000/svg">
<path d="M20.6712 9.7445C14.8846 9.7445 10.217 14.3233 10.217 20C10.217 25.6767 14.8846 30.2555 20.6712 30.2555C26.4579 30.2555 31.1255 25.6767 31.1255 20C31.1255 14.3233 26.4579 9.7445 20.6712 9.7445ZM20.6712 26.6674C16.9317 26.6674 13.8746 23.6773 13.8746 20C13.8746 16.3227 16.9226 13.3326 20.6712 13.3326C24.4199 13.3326 27.4679 16.3227 27.4679 20C27.4679 23.6773 24.4108 26.6674 20.6712 26.6674ZM33.9915 9.325C33.9915 10.6549 32.8997 11.7171 31.5531 11.7171C30.1974 11.7171 29.1147 10.646 29.1147 9.325C29.1147 8.00402 30.2065 6.93295 31.5531 6.93295C32.8997 6.93295 33.9915 8.00402 33.9915 9.325ZM40.9156 11.7528C40.7609 8.54848 40.0148 5.71014 37.6219 3.37164C35.238 1.03314 32.3447 0.301238 29.0783 0.140578C25.7118 -0.0468593 15.6215 -0.0468593 12.2551 0.140578C8.99778 0.292313 6.10444 1.02421 3.71152 3.36271C1.3186 5.70122 0.581613 8.53955 0.417839 11.7438C0.226769 15.0463 0.226769 24.9448 0.417839 28.2472C0.572514 31.4515 1.3186 34.2899 3.71152 36.6284C6.10444 38.9669 8.98869 39.6988 12.2551 39.8594C15.6215 40.0469 25.7118 40.0469 29.0783 39.8594C32.3447 39.7077 35.238 38.9758 37.6219 36.6284C40.0057 34.2899 40.7518 31.4515 40.9156 28.2472C41.1066 24.9448 41.1066 15.0552 40.9156 11.7528ZM36.5664 31.7907C35.8567 33.5401 34.4829 34.8879 32.6904 35.593C30.0064 36.6373 23.6374 36.3963 20.6712 36.3963C17.7051 36.3963 11.327 36.6284 8.65204 35.593C6.86872 34.8968 5.49484 33.549 4.77605 31.7907C3.71152 29.1576 3.95718 22.9097 3.95718 20C3.95718 17.0903 3.72062 10.8334 4.77605 8.2093C5.48574 6.45989 6.85962 5.11213 8.65204 4.40701C11.3361 3.36271 17.7051 3.6037 20.6712 3.6037C23.6374 3.6037 30.0155 3.37164 32.6904 4.40701C34.4738 5.1032 35.8476 6.45096 36.5664 8.2093C37.631 10.8424 37.3853 17.0903 37.3853 20C37.3853 22.9097 37.631 29.1666 36.5664 31.7907Z" fill="#B91F33"/>
</svg>
