<svg width="41" height="40" viewBox="0 0 41 40" fill="none" xmlns="http://www.w3.org/2000/svg">
<path d="M34.6758 5.8125C30.8613 2.0625 25.7815 0 20.3831 0C9.2402 0 0.172969 8.89286 0.172969 19.8214C0.172969 23.3125 1.10154 26.7232 2.86765 29.7321L0 40L10.715 37.2411C13.6646 38.8214 16.9874 39.6518 20.374 39.6518H20.3831C31.5168 39.6518 40.7843 30.7589 40.7843 19.8304C40.7843 14.5357 38.4902 9.5625 34.6758 5.8125ZM20.3831 36.3125C17.3606 36.3125 14.402 35.5179 11.8256 34.0179L11.2157 33.6607L4.86134 35.2946L6.55462 29.2143L6.15406 28.5893C4.46989 25.9643 3.58683 22.9375 3.58683 19.8214C3.58683 10.7411 11.1246 3.34821 20.3922 3.34821C24.8803 3.34821 29.0952 5.0625 32.2633 8.17857C35.4314 11.2946 37.3796 15.4286 37.3704 19.8304C37.3704 28.9196 29.6415 36.3125 20.3831 36.3125ZM29.5959 23.9732C29.0952 23.7232 26.6099 22.5268 26.1457 22.3661C25.6814 22.1964 25.3445 22.1161 25.0077 22.6161C24.6709 23.1161 23.7059 24.2232 23.4055 24.5625C23.1141 24.8929 22.8137 24.9375 22.313 24.6875C19.3452 23.2321 17.3971 22.0893 15.4398 18.7946C14.9209 17.9196 15.9587 17.9821 16.9237 16.0893C17.0875 15.7589 17.0056 15.4732 16.8782 15.2232C16.7507 14.9732 15.7402 12.5357 15.3214 11.5446C14.9118 10.5804 14.493 10.7143 14.1835 10.6964C13.8922 10.6786 13.5553 10.6786 13.2185 10.6786C12.8817 10.6786 12.3354 10.8036 11.8711 11.2946C11.4069 11.7946 10.105 12.9911 10.105 15.4286C10.105 17.8661 11.9167 20.2232 12.1625 20.5536C12.4174 20.8839 15.722 25.8839 20.7927 28.0357C23.9972 29.3929 25.2535 29.5089 26.8557 29.2768C27.8298 29.1339 29.8417 28.0804 30.2605 26.9196C30.6793 25.7589 30.6793 24.7679 30.5518 24.5625C30.4335 24.3393 30.0966 24.2143 29.5959 23.9732Z" fill="#B91F33"/>
</svg>
